<svg xmlns="http://www.w3.org/2000/svg" xmlns:xlink="http://www.w3.org/1999/xlink" width="500" zoomAndPan="magnify" viewBox="0 0 375 374.999991" height="500" preserveAspectRatio="xMidYMid meet" version="1.0"><defs><clipPath id="da8a988dea"><path d="M 64 5 L 356 5 L 356 363 L 64 363 Z M 64 5 " clip-rule="nonzero"/></clipPath><clipPath id="a068f6afb2"><path d="M 155.257812 3.234375 L 357.816406 66.109375 L 264.976562 365.199219 L 62.417969 302.324219 Z M 155.257812 3.234375 " clip-rule="nonzero"/></clipPath><clipPath id="f22180cd56"><path d="M 164.570312 6.125 L 348.503906 63.21875 C 353.648438 64.816406 356.519531 70.28125 354.925781 75.421875 L 267.976562 355.53125 C 266.382812 360.671875 260.917969 363.546875 255.773438 361.953125 L 71.839844 304.859375 C 66.699219 303.261719 63.824219 297.796875 65.421875 292.65625 L 152.367188 12.546875 C 153.964844 7.40625 159.425781 4.53125 164.570312 6.125 Z M 164.570312 6.125 " clip-rule="nonzero"/></clipPath><clipPath id="bb7c9f11d6"><path d="M 78 191 L 294 191 L 294 340 L 78 340 Z M 78 191 " clip-rule="nonzero"/></clipPath><clipPath id="408a06eb97"><path d="M 83.105469 190.816406 L 294.71875 197.554688 L 290.195312 339.738281 L 78.582031 333.003906 Z M 83.105469 190.816406 " clip-rule="nonzero"/></clipPath><clipPath id="82aac86f05"><path d="M 92.851562 191.128906 L 284.429688 197.226562 C 289.8125 197.398438 294.039062 201.898438 293.867188 207.28125 L 289.960938 329.976562 C 289.789062 335.359375 285.289062 339.582031 279.90625 339.410156 L 88.324219 333.316406 C 82.945312 333.144531 78.71875 328.640625 78.890625 323.257812 L 82.796875 200.5625 C 82.96875 195.179688 87.46875 190.957031 92.851562 191.128906 Z M 92.851562 191.128906 " clip-rule="nonzero"/></clipPath><clipPath id="60ba9ed39b"><path d="M 68 21 L 299 21 L 299 311 L 68 311 Z M 68 21 " clip-rule="nonzero"/></clipPath><clipPath id="b02f3f677a"><path d="M 77.164062 20.757812 L 298.652344 27.804688 L 289.648438 310.722656 L 68.160156 303.675781 Z M 77.164062 20.757812 " clip-rule="nonzero"/></clipPath><clipPath id="18a982bd53"><path d="M 86.90625 21.066406 L 288.90625 27.496094 C 294.289062 27.667969 298.515625 32.167969 298.34375 37.550781 L 289.960938 300.902344 C 289.789062 306.285156 285.289062 310.511719 279.90625 310.339844 L 77.90625 303.910156 C 72.523438 303.738281 68.300781 299.238281 68.472656 293.855469 L 76.851562 30.5 C 77.023438 25.121094 81.527344 20.894531 86.90625 21.066406 Z M 86.90625 21.066406 " clip-rule="nonzero"/></clipPath><clipPath id="c24a77161e"><path d="M 64 185 L 254 185 L 254 331 L 64 331 Z M 64 185 " clip-rule="nonzero"/></clipPath><clipPath id="37196c2605"><path d="M 84.492188 184.039062 L 255.898438 216.554688 L 233.9375 332.332031 L 62.53125 299.820312 Z M 84.492188 184.039062 " clip-rule="nonzero"/></clipPath><clipPath id="dfee3b3e48"><path d="M 94.070312 185.855469 L 246.03125 214.683594 C 251.320312 215.6875 254.796875 220.789062 253.792969 226.078125 L 235.464844 322.699219 C 234.460938 327.988281 229.359375 331.464844 224.066406 330.460938 L 72.109375 301.636719 C 66.820312 300.632812 63.34375 295.53125 64.347656 290.238281 L 82.675781 193.621094 C 83.679688 188.328125 88.78125 184.855469 94.070312 185.855469 Z M 94.070312 185.855469 " clip-rule="nonzero"/></clipPath><clipPath id="c377f51cf9"><path d="M 13 12 L 313 12 L 313 371 L 13 371 Z M 13 12 " clip-rule="nonzero"/></clipPath><clipPath id="4063dd47fe"><path d="M 11.089844 77.234375 L 218.257812 9.816406 L 314.910156 306.8125 L 107.738281 374.230469 Z M 11.089844 77.234375 " clip-rule="nonzero"/></clipPath><clipPath id="a415192c75"><path d="M 20.359375 74.21875 L 208.988281 12.832031 C 214.109375 11.167969 219.609375 13.96875 221.277344 19.085938 L 311.632812 296.742188 C 313.296875 301.863281 310.496094 307.363281 305.378906 309.03125 L 116.75 370.414062 C 111.632812 372.078125 106.128906 369.28125 104.460938 364.160156 L 14.105469 86.503906 C 12.441406 81.386719 15.242188 75.882812 20.359375 74.21875 Z M 20.359375 74.21875 " clip-rule="nonzero"/></clipPath><clipPath id="7b97bfcbe4"><path d="M 80 102 L 241 102 L 241 263 L 80 263 Z M 80 102 " clip-rule="nonzero"/></clipPath><clipPath id="85056d8faf"><path d="M 64.105469 136.160156 L 207.34375 86.75 L 256.394531 228.941406 L 113.15625 278.351562 Z M 64.105469 136.160156 " clip-rule="nonzero"/></clipPath><clipPath id="5a2ebdbdb1"><path d="M 64.105469 136.160156 L 207.34375 86.75 L 256.394531 228.941406 L 113.15625 278.351562 Z M 64.105469 136.160156 " clip-rule="nonzero"/></clipPath><clipPath id="fa004a5bdd"><path d="M 64.105469 136.160156 L 207.34375 86.75 L 256.394531 228.941406 L 113.15625 278.351562 Z M 64.105469 136.160156 " clip-rule="nonzero"/></clipPath><clipPath id="613693fdfe"><path d="M 107 128 L 213 128 L 213 237 L 107 237 Z M 107 128 " clip-rule="nonzero"/></clipPath><clipPath id="0d5797d3b8"><path d="M 102.449219 152.539062 L 186.394531 123.582031 L 216.9375 212.121094 L 132.992188 241.078125 Z M 102.449219 152.539062 " clip-rule="nonzero"/></clipPath><clipPath id="517bf991c3"><path d="M 118.753906 146.914062 L 170.089844 129.207031 C 179.09375 126.101562 188.914062 130.882812 192.019531 139.890625 L 211.222656 195.558594 C 214.332031 204.5625 209.546875 214.382812 200.542969 217.488281 L 149.207031 235.199219 C 140.203125 238.304688 130.382812 233.523438 127.277344 224.515625 L 108.074219 168.847656 C 104.96875 159.84375 109.75 150.023438 118.753906 146.914062 Z M 118.753906 146.914062 " clip-rule="nonzero"/></clipPath><clipPath id="6f1576139b"><path d="M 116 189 L 125 189 L 125 204 L 116 204 Z M 116 189 " clip-rule="nonzero"/></clipPath><clipPath id="bdb9bbb55f"><path d="M 109.105469 200.097656 L 142.519531 131.488281 L 211.128906 164.902344 L 177.710938 233.511719 Z M 109.105469 200.097656 " clip-rule="nonzero"/></clipPath><clipPath id="03d5b85597"><path d="M 109.105469 200.097656 L 142.519531 131.488281 L 211.128906 164.902344 L 177.710938 233.511719 Z M 109.105469 200.097656 " clip-rule="nonzero"/></clipPath><clipPath id="a63b6f3578"><path d="M 143 170 L 178 170 L 178 195 L 143 195 Z M 143 170 " clip-rule="nonzero"/></clipPath><clipPath id="f3737b701d"><path d="M 109.105469 200.097656 L 142.519531 131.488281 L 211.128906 164.902344 L 177.710938 233.511719 Z M 109.105469 200.097656 " clip-rule="nonzero"/></clipPath><clipPath id="fbf911605b"><path d="M 109.105469 200.097656 L 142.519531 131.488281 L 211.128906 164.902344 L 177.710938 233.511719 Z M 109.105469 200.097656 " clip-rule="nonzero"/></clipPath><clipPath id="436289dd0a"><path d="M 119 176 L 138 176 L 138 211 L 119 211 Z M 119 176 " clip-rule="nonzero"/></clipPath><clipPath id="ce39e29171"><path d="M 109.105469 200.097656 L 142.519531 131.488281 L 211.128906 164.902344 L 177.710938 233.511719 Z M 109.105469 200.097656 " clip-rule="nonzero"/></clipPath><clipPath id="ea45dbfbdb"><path d="M 109.105469 200.097656 L 142.519531 131.488281 L 211.128906 164.902344 L 177.710938 233.511719 Z M 109.105469 200.097656 " clip-rule="nonzero"/></clipPath><clipPath id="7b251b9a07"><path d="M 196 162 L 205 162 L 205 177 L 196 177 Z M 196 162 " clip-rule="nonzero"/></clipPath><clipPath id="588ad1c404"><path d="M 109.105469 200.097656 L 142.519531 131.488281 L 211.128906 164.902344 L 177.710938 233.511719 Z M 109.105469 200.097656 " clip-rule="nonzero"/></clipPath><clipPath id="11d8223285"><path d="M 109.105469 200.097656 L 142.519531 131.488281 L 211.128906 164.902344 L 177.710938 233.511719 Z M 109.105469 200.097656 " clip-rule="nonzero"/></clipPath><clipPath id="3d2c22faf3"><path d="M 183 154 L 202 154 L 202 189 L 183 189 Z M 183 154 " clip-rule="nonzero"/></clipPath><clipPath id="db0d7f074f"><path d="M 109.105469 200.097656 L 142.519531 131.488281 L 211.128906 164.902344 L 177.710938 233.511719 Z M 109.105469 200.097656 " clip-rule="nonzero"/></clipPath><clipPath id="f199e2d61b"><path d="M 109.105469 200.097656 L 142.519531 131.488281 L 211.128906 164.902344 L 177.710938 233.511719 Z M 109.105469 200.097656 " clip-rule="nonzero"/></clipPath><clipPath id="4b726b7fc3"><path d="M 125 165 L 152 165 L 152 215 L 125 215 Z M 125 165 " clip-rule="nonzero"/></clipPath><clipPath id="8200bd96ff"><path d="M 109.105469 200.097656 L 142.519531 131.488281 L 211.128906 164.902344 L 177.710938 233.511719 Z M 109.105469 200.097656 " clip-rule="nonzero"/></clipPath><clipPath id="8e3fa92543"><path d="M 109.105469 200.097656 L 142.519531 131.488281 L 211.128906 164.902344 L 177.710938 233.511719 Z M 109.105469 200.097656 " clip-rule="nonzero"/></clipPath><clipPath id="fab462c9a1"><path d="M 169 150 L 196 150 L 196 200 L 169 200 Z M 169 150 " clip-rule="nonzero"/></clipPath><clipPath id="45b07095ae"><path d="M 109.105469 200.097656 L 142.519531 131.488281 L 211.128906 164.902344 L 177.710938 233.511719 Z M 109.105469 200.097656 " clip-rule="nonzero"/></clipPath><clipPath id="d82153cf28"><path d="M 109.105469 200.097656 L 142.519531 131.488281 L 211.128906 164.902344 L 177.710938 233.511719 Z M 109.105469 200.097656 " clip-rule="nonzero"/></clipPath></defs><g clip-path="url(#da8a988dea)"><g clip-path="url(#a068f6afb2)"><g clip-path="url(#f22180cd56)"><path fill="#158fff" d="M 155.257812 3.234375 L 357.816406 66.109375 L 264.976562 365.199219 L 62.417969 302.324219 Z M 155.257812 3.234375 " fill-opacity="1" fill-rule="nonzero"/></g></g></g><g clip-path="url(#bb7c9f11d6)"><g clip-path="url(#408a06eb97)"><g clip-path="url(#82aac86f05)"><path fill="#65b1f6" d="M 83.105469 190.816406 L 294.164062 197.535156 L 289.640625 339.722656 L 78.582031 333.003906 Z M 83.105469 190.816406 " fill-opacity="1" fill-rule="nonzero"/></g></g></g><g clip-path="url(#60ba9ed39b)"><g clip-path="url(#b02f3f677a)"><g clip-path="url(#18a982bd53)"><path fill="#65b1f6" d="M 77.164062 20.757812 L 298.652344 27.804688 L 289.648438 310.722656 L 68.160156 303.675781 Z M 77.164062 20.757812 " fill-opacity="1" fill-rule="nonzero"/></g></g></g><g clip-path="url(#c24a77161e)"><g clip-path="url(#37196c2605)"><g clip-path="url(#dfee3b3e48)"><path fill="#158fff" d="M 84.492188 184.039062 L 255.449219 216.46875 L 233.484375 332.246094 L 62.53125 299.820312 Z M 84.492188 184.039062 " fill-opacity="1" fill-rule="nonzero"/></g></g></g><g clip-path="url(#c377f51cf9)"><g clip-path="url(#4063dd47fe)"><g clip-path="url(#a415192c75)"><path fill="#158fff" d="M 11.089844 77.234375 L 218.257812 9.816406 L 314.644531 306.003906 L 107.476562 373.421875 Z M 11.089844 77.234375 " fill-opacity="1" fill-rule="nonzero"/></g></g></g><path fill="#000000" d="M 289.996094 40.964844 L 347.71875 58.871094 C 358.441406 62.199219 364.449219 73.605469 361.121094 84.324219 L 306.246094 261.136719 L 315.335938 290.269531 C 318.679688 300.988281 312.695312 312.402344 301.976562 315.746094 L 299.5 316.515625 L 299.5 320.960938 C 299.5 331.429688 291.578125 340.058594 281.40625 341.175781 L 284.808594 330.207031 C 287.917969 328.304688 289.996094 324.875 289.996094 320.960938 L 289.996094 319.480469 L 250.507812 331.800781 L 279.15625 331.800781 C 281.226562 331.800781 283.164062 331.21875 284.808594 330.207031 L 277.945312 352.324219 C 274.617188 363.046875 263.210938 369.046875 252.484375 365.722656 L 196.96875 348.5 L 122.984375 371.578125 C 112.265625 374.921875 100.847656 368.933594 97.503906 358.21875 L 83.484375 313.296875 L 89.007812 315.007812 L 83.484375 313.296875 L 80.820312 304.746094 L 83.484375 313.296875 L 73.410156 310.167969 L 80.820312 312.46875 L 80.820312 320.964844 C 80.820312 326.085938 84.382812 330.386719 89.167969 331.507812 L 92.226562 341.300781 L 91.65625 341.300781 C 80.429688 341.300781 71.3125 332.1875 71.3125 320.964844 L 71.3125 309.390625 C 61.917969 305.3125 56.902344 294.71875 60.007812 284.714844 L 67.265625 261.324219 L 13.910156 90.351562 C 10.566406 79.632812 16.554688 68.21875 27.273438 64.875 L 78.25 48.976562 L 71.3125 51.140625 L 71.3125 40.359375 C 71.3125 29.132812 80.429688 20.019531 91.65625 20.019531 L 142.160156 20.019531 L 139.210938 29.523438 L 91.65625 29.523438 C 85.675781 29.523438 80.820312 34.378906 80.820312 40.359375 L 80.820312 48.175781 L 139.058594 30.007812 L 135.636719 41.027344 L 30.101562 73.949219 C 24.394531 75.730469 21.203125 81.808594 22.984375 87.519531 L 106.578125 355.386719 C 108.359375 361.097656 114.441406 364.285156 120.152344 362.503906 L 299.144531 306.671875 L 299.5 306.550781 L 299.566406 306.53125 C 305.011719 304.589844 308 298.667969 306.261719 293.101562 L 222.667969 25.234375 C 222.003906 23.101562 220.738281 21.320312 219.117188 20.019531 L 219.085938 19.996094 C 216.371094 17.828125 212.660156 17.003906 209.09375 18.117188 L 135.640625 41.027344 L 143.183594 16.71875 C 146.511719 5.996094 157.917969 -0.0078125 168.644531 3.320312 L 229.75 22.277344 L 196.707031 12.027344 L 206.261719 9.042969 C 216.15625 5.957031 226.648438 10.820312 230.828125 20.019531 L 231.078125 20.585938 C 231.007812 20.417969 230.933594 20.253906 230.859375 20.09375 C 230.859375 20.09375 230.828125 20.019531 230.828125 20.019531 L 279.15625 20.019531 C 290.386719 20.019531 299.5 29.132812 299.5 40.359375 L 299.5 43.914062 L 289.996094 40.964844 L 289.996094 40.359375 C 289.996094 34.378906 285.140625 29.523438 279.15625 29.523438 L 233.964844 29.523438 L 235.351562 33.964844 L 231.839844 32.875 L 235.351562 33.964844 L 289.996094 209.070312 Z M 271.414062 341.300781 L 220.042969 341.300781 L 212.960938 343.511719 L 255.304688 356.644531 C 261.015625 358.417969 267.09375 355.21875 268.867188 349.507812 Z M 279.164062 341.300781 C 279.164062 341.300781 279.164062 341.300781 279.160156 341.300781 Z M 279.175781 341.300781 C 279.171875 341.300781 279.167969 341.300781 279.167969 341.300781 Z M 279.1875 341.300781 Z M 279.191406 341.300781 Z M 279.199219 341.300781 L 279.195312 341.300781 Z M 279.199219 341.300781 Z M 279.207031 341.300781 Z M 279.210938 341.300781 L 279.214844 341.300781 C 279.214844 341.300781 279.214844 341.300781 279.210938 341.300781 Z M 279.246094 341.300781 Z M 279.25 341.300781 Z M 279.273438 341.300781 L 279.269531 341.300781 Z M 279.289062 341.300781 Z M 279.296875 341.300781 Z M 279.34375 341.300781 Z M 279.4375 341.300781 L 279.433594 341.300781 Z M 279.460938 341.300781 Z M 279.507812 341.300781 Z M 279.511719 341.300781 Z M 279.53125 341.296875 Z M 279.539062 341.296875 C 279.539062 341.296875 279.542969 341.296875 279.542969 341.296875 Z M 279.5625 341.296875 L 279.558594 341.296875 Z M 279.566406 341.296875 Z M 279.570312 341.296875 Z M 279.578125 341.296875 Z M 279.582031 341.296875 Z M 279.589844 341.296875 L 279.585938 341.296875 Z M 279.589844 341.296875 Z M 279.597656 341.296875 Z M 279.625 341.296875 Z M 279.65625 341.296875 Z M 279.667969 341.296875 Z M 279.675781 341.296875 Z M 279.679688 341.296875 Z M 279.691406 341.296875 C 279.6875 341.296875 279.6875 341.296875 279.683594 341.296875 C 279.6875 341.296875 279.6875 341.296875 279.691406 341.296875 Z M 279.703125 341.296875 Z M 279.707031 341.296875 Z M 279.722656 341.292969 C 279.722656 341.292969 279.71875 341.292969 279.71875 341.292969 Z M 279.730469 341.292969 Z M 279.730469 341.292969 C 279.730469 341.292969 279.734375 341.292969 279.734375 341.292969 Z M 279.734375 341.292969 Z M 279.738281 341.292969 Z M 279.757812 341.292969 L 279.753906 341.292969 Z M 279.757812 341.292969 Z M 279.765625 341.292969 Z M 279.777344 341.292969 Z M 279.816406 341.292969 Z M 279.824219 341.292969 Z M 279.832031 341.292969 L 279.828125 341.292969 Z M 279.835938 341.292969 L 279.832031 341.292969 Z M 279.839844 341.292969 Z M 279.84375 341.289062 C 279.84375 341.289062 279.839844 341.289062 279.839844 341.292969 Z M 279.871094 341.289062 Z M 279.878906 341.289062 L 279.875 341.289062 Z M 279.890625 341.289062 C 279.886719 341.289062 279.882812 341.289062 279.878906 341.289062 Z M 279.898438 341.289062 Z M 279.902344 341.289062 Z M 279.90625 341.289062 Z M 279.941406 341.289062 L 279.9375 341.289062 Z M 279.941406 341.289062 Z M 279.949219 341.289062 C 279.945312 341.289062 279.945312 341.289062 279.945312 341.289062 Z M 279.957031 341.285156 Z M 279.96875 341.285156 C 279.96875 341.285156 279.964844 341.285156 279.964844 341.285156 C 279.964844 341.285156 279.96875 341.285156 279.96875 341.285156 Z M 279.976562 341.285156 C 279.976562 341.285156 279.972656 341.285156 279.96875 341.285156 C 279.972656 341.285156 279.976562 341.285156 279.976562 341.285156 Z M 279.984375 341.285156 Z M 279.992188 341.285156 C 279.992188 341.285156 279.996094 341.285156 279.996094 341.285156 Z M 280 341.285156 L 279.996094 341.285156 Z M 280 341.285156 Z M 280.011719 341.285156 Z M 280.015625 341.285156 C 280.015625 341.285156 280.015625 341.285156 280.011719 341.285156 C 280.015625 341.285156 280.015625 341.285156 280.015625 341.285156 Z M 280.019531 341.285156 C 280.019531 341.285156 280.019531 341.285156 280.015625 341.285156 C 280.019531 341.285156 280.019531 341.285156 280.019531 341.285156 Z M 280.023438 341.285156 Z M 280.027344 341.285156 Z M 280.03125 341.285156 Z M 280.035156 341.285156 Z M 280.039062 341.285156 C 280.039062 341.285156 280.035156 341.285156 280.035156 341.285156 C 280.035156 341.285156 280.039062 341.285156 280.039062 341.285156 Z M 280.042969 341.285156 Z M 280.046875 341.28125 Z M 280.058594 341.28125 Z M 280.070312 341.28125 Z M 280.078125 341.28125 Z M 280.09375 341.28125 Z M 280.117188 341.28125 Z M 280.125 341.28125 Z M 280.128906 341.28125 Z M 280.140625 341.277344 L 280.136719 341.277344 Z M 280.167969 341.277344 C 280.167969 341.277344 280.164062 341.277344 280.164062 341.277344 C 280.164062 341.277344 280.167969 341.277344 280.167969 341.277344 Z M 280.179688 341.277344 Z M 280.183594 341.277344 Z M 280.222656 341.273438 Z M 280.246094 341.273438 Z M 280.25 341.273438 Z M 280.273438 341.273438 Z M 280.277344 341.273438 Z M 280.285156 341.269531 Z M 280.289062 341.269531 Z M 280.292969 341.269531 Z M 280.296875 341.269531 Z M 280.308594 341.269531 C 280.304688 341.269531 280.304688 341.269531 280.304688 341.269531 C 280.304688 341.269531 280.304688 341.269531 280.308594 341.269531 Z M 280.316406 341.269531 C 280.316406 341.269531 280.3125 341.269531 280.3125 341.269531 C 280.3125 341.269531 280.316406 341.269531 280.316406 341.269531 Z M 280.320312 341.269531 Z M 280.324219 341.269531 Z M 280.324219 341.269531 C 280.324219 341.269531 280.328125 341.269531 280.328125 341.269531 Z M 280.332031 341.269531 Z M 280.335938 341.269531 C 280.335938 341.269531 280.332031 341.269531 280.332031 341.269531 C 280.332031 341.269531 280.335938 341.269531 280.335938 341.269531 Z M 280.339844 341.269531 Z M 280.34375 341.269531 Z M 280.359375 341.265625 C 280.355469 341.265625 280.351562 341.269531 280.34375 341.269531 C 280.351562 341.269531 280.355469 341.265625 280.359375 341.265625 Z M 280.371094 341.265625 C 280.367188 341.265625 280.363281 341.265625 280.363281 341.265625 C 280.363281 341.265625 280.367188 341.265625 280.371094 341.265625 Z M 280.375 341.265625 L 280.371094 341.265625 Z M 280.375 341.265625 Z M 280.378906 341.265625 Z M 280.382812 341.265625 L 280.386719 341.265625 Z M 280.394531 341.265625 Z M 280.417969 341.261719 Z M 280.433594 341.261719 L 280.425781 341.261719 Z M 280.4375 341.261719 L 280.453125 341.261719 Z M 280.460938 341.261719 C 280.457031 341.261719 280.457031 341.261719 280.457031 341.261719 Z M 280.464844 341.261719 L 280.460938 341.261719 Z M 280.46875 341.261719 L 280.464844 341.261719 Z M 280.476562 341.261719 Z M 280.484375 341.257812 Z M 280.492188 341.257812 C 280.488281 341.257812 280.488281 341.257812 280.488281 341.257812 C 280.488281 341.257812 280.488281 341.257812 280.492188 341.257812 Z M 280.503906 341.257812 L 280.5 341.257812 Z M 280.503906 341.257812 Z M 280.515625 341.257812 Z M 280.859375 341.230469 Z M 280.871094 341.230469 C 280.871094 341.230469 280.867188 341.230469 280.867188 341.230469 Z M 280.871094 341.230469 Z M 280.875 341.230469 Z M 280.882812 341.230469 C 280.882812 341.230469 280.878906 341.230469 280.878906 341.230469 C 280.878906 341.230469 280.882812 341.230469 280.882812 341.230469 Z M 280.902344 341.226562 C 280.902344 341.226562 280.898438 341.226562 280.898438 341.226562 C 280.898438 341.226562 280.902344 341.226562 280.902344 341.226562 Z M 280.941406 341.222656 C 280.941406 341.222656 280.941406 341.222656 280.9375 341.222656 Z M 280.945312 341.222656 C 280.945312 341.222656 280.945312 341.222656 280.941406 341.222656 C 280.945312 341.222656 280.945312 341.222656 280.945312 341.222656 Z M 280.960938 341.222656 Z M 280.964844 341.222656 L 280.960938 341.222656 Z M 280.996094 341.21875 Z M 281.03125 341.214844 Z M 281.035156 341.214844 L 281.039062 341.214844 C 281.039062 341.214844 281.039062 341.214844 281.035156 341.214844 Z M 281.050781 341.214844 L 281.046875 341.214844 Z M 281.054688 341.214844 Z M 281.058594 341.214844 Z M 281.066406 341.210938 C 281.0625 341.210938 281.0625 341.210938 281.0625 341.210938 C 281.0625 341.210938 281.0625 341.210938 281.066406 341.210938 Z M 281.09375 341.210938 Z M 281.105469 341.207031 C 281.105469 341.207031 281.101562 341.207031 281.101562 341.207031 C 281.101562 341.207031 281.105469 341.207031 281.105469 341.207031 Z M 281.109375 341.207031 L 281.113281 341.207031 C 281.109375 341.207031 281.109375 341.207031 281.109375 341.207031 Z M 281.15625 341.203125 C 281.152344 341.203125 281.148438 341.203125 281.144531 341.203125 C 281.148438 341.203125 281.152344 341.203125 281.15625 341.203125 Z M 281.160156 341.203125 C 281.160156 341.203125 281.160156 341.203125 281.15625 341.203125 C 281.160156 341.203125 281.160156 341.203125 281.160156 341.203125 Z M 281.171875 341.203125 Z M 281.171875 341.203125 Z M 281.175781 341.203125 C 281.175781 341.203125 281.175781 341.203125 281.171875 341.203125 Z M 281.183594 341.199219 Z M 281.183594 341.199219 Z M 281.195312 341.199219 C 281.191406 341.199219 281.191406 341.199219 281.1875 341.199219 C 281.191406 341.199219 281.191406 341.199219 281.195312 341.199219 Z M 281.199219 341.199219 C 281.199219 341.199219 281.199219 341.199219 281.195312 341.199219 C 281.199219 341.199219 281.199219 341.199219 281.199219 341.199219 Z M 281.203125 341.199219 Z M 281.210938 341.199219 Z M 281.214844 341.195312 Z M 281.222656 341.195312 L 281.21875 341.195312 Z M 281.246094 341.195312 C 281.246094 341.195312 281.242188 341.195312 281.242188 341.195312 Z M 281.25 341.195312 Z M 281.253906 341.191406 C 281.253906 341.191406 281.253906 341.191406 281.25 341.195312 Z M 281.257812 341.191406 C 281.257812 341.191406 281.257812 341.191406 281.253906 341.191406 Z M 281.261719 341.191406 Z M 281.289062 341.191406 C 281.285156 341.191406 281.285156 341.191406 281.285156 341.191406 Z M 281.292969 341.1875 Z M 281.296875 341.1875 L 281.292969 341.1875 Z M 281.3125 341.1875 C 281.304688 341.1875 281.300781 341.1875 281.296875 341.1875 C 281.300781 341.1875 281.304688 341.1875 281.3125 341.1875 Z M 281.3125 341.1875 Z M 281.316406 341.1875 Z M 281.328125 341.183594 C 281.328125 341.183594 281.328125 341.183594 281.324219 341.183594 C 281.328125 341.183594 281.328125 341.183594 281.328125 341.183594 Z M 281.332031 341.183594 Z M 281.335938 341.183594 Z M 281.339844 341.183594 Z M 281.355469 341.183594 Z M 281.359375 341.183594 Z M 281.367188 341.179688 C 281.363281 341.179688 281.363281 341.179688 281.363281 341.179688 Z M 281.375 341.179688 L 281.371094 341.179688 Z M 281.375 341.179688 Z M 281.386719 341.179688 L 281.382812 341.179688 Z M 281.402344 341.175781 C 281.398438 341.175781 281.398438 341.175781 281.394531 341.175781 Z M 73.40625 310.167969 L 73.40625 310.171875 Z M 73.390625 310.164062 L 73.394531 310.164062 Z M 73.386719 310.164062 C 73.386719 310.164062 73.386719 310.164062 73.390625 310.164062 C 73.386719 310.164062 73.386719 310.164062 73.386719 310.164062 Z M 73.371094 310.160156 L 73.386719 310.164062 C 73.378906 310.160156 73.375 310.160156 73.371094 310.160156 Z M 73.363281 310.15625 C 73.367188 310.15625 73.367188 310.15625 73.371094 310.160156 C 73.367188 310.15625 73.367188 310.15625 73.363281 310.15625 Z M 73.359375 310.15625 Z M 73.351562 310.152344 C 73.351562 310.152344 73.351562 310.152344 73.355469 310.152344 C 73.351562 310.152344 73.351562 310.152344 73.351562 310.152344 Z M 73.34375 310.148438 C 73.34375 310.152344 73.34375 310.152344 73.347656 310.152344 C 73.34375 310.152344 73.34375 310.152344 73.34375 310.148438 Z M 73.324219 310.144531 C 73.328125 310.144531 73.335938 310.148438 73.339844 310.148438 C 73.335938 310.148438 73.328125 310.144531 73.324219 310.144531 Z M 73.304688 310.136719 C 73.308594 310.140625 73.316406 310.140625 73.320312 310.144531 C 73.316406 310.140625 73.308594 310.140625 73.304688 310.136719 Z M 73.300781 310.136719 Z M 73.292969 310.136719 C 73.296875 310.136719 73.296875 310.136719 73.296875 310.136719 C 73.296875 310.136719 73.296875 310.136719 73.292969 310.136719 Z M 73.292969 310.132812 Z M 73.269531 310.128906 C 73.277344 310.128906 73.285156 310.132812 73.289062 310.132812 C 73.285156 310.132812 73.277344 310.128906 73.269531 310.128906 Z M 73.257812 310.125 C 73.261719 310.125 73.265625 310.125 73.265625 310.125 C 73.265625 310.125 73.261719 310.125 73.257812 310.125 Z M 73.253906 310.121094 C 73.257812 310.121094 73.257812 310.121094 73.257812 310.121094 C 73.257812 310.121094 73.257812 310.121094 73.253906 310.121094 Z M 73.222656 310.113281 C 73.234375 310.113281 73.242188 310.117188 73.253906 310.121094 C 73.242188 310.117188 73.234375 310.113281 73.222656 310.113281 Z M 73.21875 310.109375 C 73.21875 310.109375 73.21875 310.109375 73.222656 310.109375 C 73.21875 310.109375 73.21875 310.109375 73.21875 310.109375 Z M 73.171875 310.09375 C 73.183594 310.101562 73.199219 310.105469 73.214844 310.109375 C 73.199219 310.105469 73.183594 310.101562 73.171875 310.09375 Z M 73.15625 310.089844 C 73.160156 310.089844 73.164062 310.09375 73.167969 310.09375 C 73.164062 310.09375 73.160156 310.089844 73.15625 310.089844 Z M 73.152344 310.089844 Z M 73.140625 310.085938 C 73.140625 310.085938 73.144531 310.085938 73.148438 310.085938 C 73.144531 310.085938 73.140625 310.085938 73.140625 310.085938 Z M 73.128906 310.082031 C 73.132812 310.082031 73.132812 310.082031 73.136719 310.082031 C 73.132812 310.082031 73.132812 310.082031 73.128906 310.082031 Z M 73.125 310.082031 Z M 73.121094 310.078125 C 73.121094 310.078125 73.121094 310.078125 73.125 310.078125 C 73.121094 310.078125 73.121094 310.078125 73.121094 310.078125 Z M 73.109375 310.074219 L 73.113281 310.078125 Z M 73.109375 310.074219 C 73.109375 310.074219 73.105469 310.074219 73.105469 310.074219 Z M 73.105469 310.074219 Z M 73.097656 310.070312 C 73.097656 310.070312 73.101562 310.070312 73.101562 310.070312 C 73.101562 310.070312 73.097656 310.070312 73.097656 310.070312 Z M 73.082031 310.066406 Z M 73.078125 310.066406 Z M 73.074219 310.0625 C 73.074219 310.0625 73.078125 310.0625 73.078125 310.066406 C 73.078125 310.0625 73.074219 310.0625 73.074219 310.0625 Z M 73.070312 310.0625 Z M 73.058594 310.058594 C 73.0625 310.058594 73.066406 310.0625 73.066406 310.0625 C 73.066406 310.0625 73.0625 310.058594 73.058594 310.058594 Z M 73.050781 310.054688 C 73.050781 310.054688 73.054688 310.058594 73.054688 310.058594 C 73.054688 310.058594 73.050781 310.054688 73.050781 310.054688 Z M 73.046875 310.054688 Z M 73.042969 310.054688 Z M 73.011719 310.042969 L 73.015625 310.042969 C 73.015625 310.042969 73.015625 310.042969 73.011719 310.042969 Z M 73.007812 310.042969 C 73.007812 310.042969 73.007812 310.042969 73.011719 310.042969 C 73.007812 310.042969 73.007812 310.042969 73.007812 310.042969 Z M 72.984375 310.035156 C 72.988281 310.035156 72.992188 310.035156 72.996094 310.039062 C 72.992188 310.035156 72.988281 310.035156 72.984375 310.035156 Z M 72.980469 310.03125 Z M 72.976562 310.03125 Z M 72.972656 310.03125 Z M 72.96875 310.027344 Z M 72.964844 310.027344 Z M 72.960938 310.027344 Z M 72.945312 310.019531 C 72.949219 310.023438 72.957031 310.023438 72.960938 310.027344 C 72.957031 310.023438 72.949219 310.023438 72.945312 310.019531 Z M 72.941406 310.019531 Z M 72.933594 310.015625 C 72.9375 310.015625 72.9375 310.015625 72.9375 310.019531 C 72.9375 310.015625 72.9375 310.015625 72.933594 310.015625 Z M 72.914062 310.007812 C 72.914062 310.011719 72.914062 310.011719 72.917969 310.011719 C 72.914062 310.011719 72.914062 310.011719 72.914062 310.007812 Z M 72.90625 310.007812 C 72.910156 310.007812 72.910156 310.007812 72.910156 310.007812 C 72.910156 310.007812 72.910156 310.007812 72.90625 310.007812 Z M 72.902344 310.007812 L 72.90625 310.007812 Z M 72.898438 310.003906 Z M 72.886719 310 C 72.890625 310 72.890625 310.003906 72.894531 310.003906 C 72.890625 310.003906 72.890625 310 72.886719 310 Z M 72.863281 309.992188 C 72.867188 309.996094 72.875 309.996094 72.882812 310 C 72.875 309.996094 72.867188 309.996094 72.863281 309.992188 Z M 72.847656 309.988281 C 72.851562 309.988281 72.855469 309.992188 72.859375 309.992188 C 72.855469 309.992188 72.851562 309.988281 72.847656 309.988281 Z M 72.84375 309.984375 Z M 72.839844 309.984375 Z M 72.832031 309.984375 L 72.839844 309.984375 C 72.835938 309.984375 72.835938 309.984375 72.832031 309.984375 Z M 72.816406 309.976562 C 72.824219 309.980469 72.828125 309.980469 72.832031 309.980469 C 72.828125 309.980469 72.824219 309.980469 72.816406 309.976562 Z M 72.816406 309.976562 Z M 72.8125 309.976562 Z M 72.808594 309.972656 Z M 72.804688 309.972656 Z M 72.800781 309.972656 Z M 72.796875 309.96875 Z M 72.789062 309.96875 C 72.792969 309.96875 72.792969 309.96875 72.792969 309.96875 C 72.792969 309.96875 72.792969 309.96875 72.789062 309.96875 Z M 72.785156 309.964844 L 72.789062 309.96875 Z M 72.78125 309.964844 C 72.78125 309.964844 72.785156 309.964844 72.785156 309.964844 C 72.785156 309.964844 72.78125 309.964844 72.78125 309.964844 Z M 72.777344 309.964844 Z M 72.742188 309.953125 L 72.746094 309.953125 Z M 72.730469 309.945312 L 72.734375 309.949219 C 72.734375 309.949219 72.730469 309.949219 72.730469 309.945312 Z M 72.71875 309.945312 L 72.726562 309.945312 C 72.722656 309.945312 72.722656 309.945312 72.71875 309.945312 Z M 72.714844 309.941406 C 72.714844 309.941406 72.714844 309.941406 72.71875 309.941406 C 72.714844 309.941406 72.714844 309.941406 72.714844 309.941406 Z M 72.707031 309.9375 L 72.710938 309.941406 C 72.710938 309.941406 72.707031 309.9375 72.707031 309.9375 Z M 72.703125 309.9375 Z M 72.675781 309.929688 C 72.683594 309.929688 72.695312 309.933594 72.703125 309.9375 C 72.695312 309.933594 72.683594 309.929688 72.675781 309.929688 Z M 72.671875 309.925781 C 72.671875 309.925781 72.675781 309.925781 72.675781 309.925781 C 72.675781 309.925781 72.671875 309.925781 72.671875 309.925781 Z M 72.660156 309.921875 C 72.664062 309.921875 72.664062 309.925781 72.667969 309.925781 C 72.664062 309.925781 72.664062 309.921875 72.660156 309.921875 Z M 72.65625 309.921875 Z M 72.652344 309.917969 L 72.652344 309.921875 Z M 72.648438 309.917969 Z M 72.644531 309.917969 Z M 72.636719 309.914062 C 72.640625 309.914062 72.640625 309.914062 72.640625 309.914062 C 72.640625 309.914062 72.640625 309.914062 72.636719 309.914062 Z M 72.625 309.910156 C 72.628906 309.910156 72.632812 309.914062 72.636719 309.914062 C 72.632812 309.914062 72.628906 309.910156 72.625 309.910156 Z M 72.617188 309.90625 C 72.617188 309.90625 72.621094 309.910156 72.625 309.910156 C 72.621094 309.910156 72.617188 309.90625 72.617188 309.90625 Z M 72.601562 309.902344 C 72.605469 309.902344 72.609375 309.90625 72.613281 309.90625 C 72.609375 309.90625 72.605469 309.902344 72.601562 309.902344 Z M 72.59375 309.898438 C 72.597656 309.898438 72.597656 309.902344 72.597656 309.902344 C 72.597656 309.902344 72.597656 309.898438 72.59375 309.898438 Z M 72.582031 309.894531 Z M 72.574219 309.890625 Z M 72.566406 309.890625 C 72.566406 309.890625 72.570312 309.890625 72.570312 309.890625 C 72.570312 309.890625 72.566406 309.890625 72.566406 309.890625 Z M 72.542969 309.882812 C 72.550781 309.882812 72.554688 309.886719 72.558594 309.886719 C 72.554688 309.886719 72.550781 309.882812 72.542969 309.882812 Z M 72.539062 309.878906 C 72.539062 309.878906 72.539062 309.878906 72.542969 309.878906 C 72.539062 309.878906 72.539062 309.878906 72.539062 309.878906 Z M 72.441406 309.84375 C 72.457031 309.847656 72.472656 309.855469 72.488281 309.859375 C 72.503906 309.867188 72.519531 309.871094 72.535156 309.878906 L 72.539062 309.878906 C 72.503906 309.867188 72.472656 309.855469 72.441406 309.84375 Z M 72.4375 309.839844 L 72.4375 309.84375 Z M 72.316406 309.796875 C 72.335938 309.804688 72.355469 309.8125 72.375 309.820312 C 72.394531 309.828125 72.414062 309.832031 72.433594 309.839844 C 72.414062 309.832031 72.394531 309.828125 72.375 309.820312 C 72.355469 309.8125 72.335938 309.804688 72.316406 309.796875 Z M 72.3125 309.796875 C 72.3125 309.796875 72.3125 309.796875 72.316406 309.796875 C 72.3125 309.796875 72.3125 309.796875 72.3125 309.796875 Z M 72.261719 309.777344 C 72.277344 309.785156 72.292969 309.789062 72.3125 309.796875 C 72.292969 309.789062 72.277344 309.785156 72.261719 309.777344 Z M 72.242188 309.769531 C 72.246094 309.773438 72.253906 309.773438 72.261719 309.777344 C 72.253906 309.773438 72.246094 309.773438 72.242188 309.769531 Z M 72.226562 309.765625 C 72.230469 309.765625 72.234375 309.765625 72.238281 309.769531 C 72.234375 309.765625 72.230469 309.765625 72.226562 309.765625 Z M 72.226562 309.761719 L 72.226562 309.765625 Z M 72.222656 309.761719 Z M 72.21875 309.761719 L 72.222656 309.761719 Z M 72.214844 309.757812 C 72.214844 309.757812 72.21875 309.761719 72.21875 309.761719 C 72.21875 309.761719 72.214844 309.757812 72.214844 309.757812 Z M 72.203125 309.753906 Z M 72.195312 309.75 C 72.195312 309.753906 72.199219 309.753906 72.199219 309.753906 C 72.199219 309.753906 72.195312 309.753906 72.195312 309.75 Z M 72.191406 309.75 Z M 72.171875 309.742188 C 72.175781 309.742188 72.175781 309.746094 72.179688 309.746094 C 72.175781 309.746094 72.175781 309.742188 72.171875 309.742188 Z M 72.164062 309.738281 L 72.164062 309.742188 Z M 72.160156 309.738281 C 72.160156 309.738281 72.164062 309.738281 72.164062 309.738281 C 72.164062 309.738281 72.160156 309.738281 72.160156 309.738281 Z M 72.140625 309.730469 C 72.148438 309.734375 72.152344 309.734375 72.160156 309.738281 C 72.152344 309.734375 72.148438 309.734375 72.140625 309.730469 Z M 72.136719 309.730469 L 72.140625 309.730469 Z M 72.132812 309.726562 C 72.132812 309.726562 72.132812 309.726562 72.132812 309.730469 C 72.132812 309.726562 72.132812 309.726562 72.132812 309.726562 Z M 72.117188 309.722656 C 72.117188 309.722656 72.121094 309.722656 72.125 309.726562 C 72.121094 309.722656 72.117188 309.722656 72.117188 309.722656 Z M 72.097656 309.714844 C 72.101562 309.714844 72.105469 309.71875 72.109375 309.71875 C 72.105469 309.71875 72.101562 309.714844 72.097656 309.714844 Z M 72.078125 309.707031 C 72.082031 309.707031 72.089844 309.710938 72.09375 309.710938 C 72.089844 309.710938 72.082031 309.707031 72.078125 309.707031 Z M 72.074219 309.703125 C 72.074219 309.703125 72.074219 309.707031 72.078125 309.707031 C 72.074219 309.707031 72.074219 309.703125 72.074219 309.703125 Z M 72.070312 309.703125 Z M 72.066406 309.703125 Z M 72.058594 309.699219 L 72.0625 309.699219 Z M 72.054688 309.699219 C 72.058594 309.699219 72.058594 309.699219 72.058594 309.699219 C 72.058594 309.699219 72.058594 309.699219 72.054688 309.699219 Z M 72.03125 309.6875 C 72.039062 309.691406 72.046875 309.695312 72.054688 309.695312 C 72.046875 309.695312 72.039062 309.691406 72.03125 309.6875 Z M 72.019531 309.683594 C 72.023438 309.683594 72.023438 309.683594 72.027344 309.6875 C 72.023438 309.683594 72.023438 309.683594 72.019531 309.683594 Z M 72.015625 309.683594 C 72.015625 309.683594 72.015625 309.683594 72.019531 309.683594 C 72.015625 309.683594 72.015625 309.683594 72.015625 309.683594 Z M 72.011719 309.679688 L 72.015625 309.679688 Z M 72.007812 309.679688 L 72.011719 309.679688 Z M 71.976562 309.667969 C 71.988281 309.671875 71.996094 309.675781 72.003906 309.679688 C 71.996094 309.675781 71.988281 309.671875 71.976562 309.667969 Z M 71.972656 309.664062 L 71.976562 309.667969 Z M 71.96875 309.664062 C 71.96875 309.664062 71.96875 309.664062 71.972656 309.664062 C 71.96875 309.664062 71.96875 309.664062 71.96875 309.664062 Z M 71.964844 309.664062 Z M 71.953125 309.65625 C 71.957031 309.660156 71.957031 309.660156 71.960938 309.660156 C 71.957031 309.660156 71.957031 309.660156 71.953125 309.65625 Z M 71.949219 309.65625 L 71.953125 309.65625 Z M 71.945312 309.65625 L 71.949219 309.65625 Z M 71.945312 309.652344 C 71.945312 309.652344 71.945312 309.652344 71.945312 309.65625 C 71.945312 309.652344 71.945312 309.652344 71.945312 309.652344 Z M 71.929688 309.648438 C 71.933594 309.648438 71.933594 309.652344 71.9375 309.652344 C 71.933594 309.652344 71.933594 309.648438 71.929688 309.648438 Z M 71.921875 309.644531 C 71.925781 309.644531 71.925781 309.648438 71.925781 309.648438 C 71.925781 309.648438 71.925781 309.644531 71.921875 309.644531 Z M 71.921875 309.644531 Z M 71.917969 309.644531 Z M 71.890625 309.632812 C 71.898438 309.636719 71.90625 309.640625 71.914062 309.640625 C 71.90625 309.640625 71.898438 309.636719 71.890625 309.632812 Z M 71.882812 309.628906 L 71.886719 309.632812 C 71.886719 309.632812 71.886719 309.628906 71.882812 309.628906 Z M 71.875 309.625 C 71.878906 309.628906 71.878906 309.628906 71.878906 309.628906 C 71.878906 309.628906 71.878906 309.628906 71.875 309.625 Z M 71.875 309.625 Z M 71.789062 309.589844 C 71.800781 309.597656 71.816406 309.601562 71.828125 309.609375 C 71.84375 309.613281 71.859375 309.621094 71.871094 309.625 C 71.859375 309.621094 71.84375 309.613281 71.828125 309.609375 C 71.816406 309.601562 71.800781 309.597656 71.789062 309.589844 Z M 71.78125 309.589844 C 71.78125 309.589844 71.785156 309.589844 71.785156 309.589844 C 71.785156 309.589844 71.78125 309.589844 71.78125 309.589844 Z M 71.773438 309.585938 C 71.773438 309.585938 71.777344 309.585938 71.777344 309.585938 C 71.777344 309.585938 71.773438 309.585938 71.773438 309.585938 Z M 71.765625 309.582031 C 71.765625 309.582031 71.769531 309.582031 71.769531 309.582031 C 71.769531 309.582031 71.765625 309.582031 71.765625 309.582031 Z M 71.761719 309.578125 C 71.761719 309.578125 71.761719 309.582031 71.761719 309.582031 C 71.761719 309.582031 71.761719 309.578125 71.761719 309.578125 Z M 71.753906 309.578125 L 71.757812 309.578125 Z M 71.75 309.574219 Z M 71.742188 309.570312 L 71.742188 309.574219 Z M 71.738281 309.570312 Z M 71.726562 309.566406 L 71.730469 309.566406 Z M 71.714844 309.5625 L 71.71875 309.5625 Z M 71.707031 309.558594 C 71.710938 309.558594 71.710938 309.558594 71.714844 309.5625 C 71.710938 309.558594 71.710938 309.558594 71.707031 309.558594 Z M 71.707031 309.558594 Z M 71.703125 309.554688 Z M 71.683594 309.546875 L 71.6875 309.550781 Z M 71.675781 309.542969 L 71.671875 309.542969 C 71.671875 309.542969 71.675781 309.542969 71.675781 309.542969 Z M 71.667969 309.542969 C 71.667969 309.542969 71.671875 309.542969 71.671875 309.542969 C 71.671875 309.542969 71.667969 309.542969 71.667969 309.542969 Z M 71.667969 309.542969 Z M 71.644531 309.53125 C 71.652344 309.535156 71.660156 309.539062 71.664062 309.539062 C 71.660156 309.539062 71.652344 309.535156 71.644531 309.53125 Z M 71.636719 309.527344 Z M 71.628906 309.523438 C 71.628906 309.527344 71.632812 309.527344 71.632812 309.527344 C 71.632812 309.527344 71.628906 309.527344 71.628906 309.523438 Z M 71.617188 309.519531 L 71.625 309.523438 C 71.621094 309.523438 71.621094 309.523438 71.617188 309.519531 Z M 71.609375 309.519531 C 71.613281 309.519531 71.613281 309.519531 71.613281 309.519531 C 71.613281 309.519531 71.613281 309.519531 71.609375 309.519531 Z M 71.609375 309.515625 Z M 71.601562 309.515625 L 71.605469 309.515625 C 71.605469 309.515625 71.601562 309.515625 71.601562 309.515625 Z M 71.597656 309.511719 Z M 71.574219 309.5 L 71.574219 309.503906 Z M 71.566406 309.5 C 71.566406 309.5 71.5625 309.496094 71.5625 309.496094 Z M 71.546875 309.492188 L 71.550781 309.492188 Z M 71.546875 309.488281 L 71.546875 309.492188 Z M 71.53125 309.484375 C 71.53125 309.484375 71.53125 309.484375 71.535156 309.484375 C 71.53125 309.484375 71.53125 309.484375 71.53125 309.484375 Z M 71.527344 309.484375 L 71.53125 309.484375 Z M 71.523438 309.480469 C 71.523438 309.480469 71.527344 309.480469 71.527344 309.484375 C 71.527344 309.480469 71.523438 309.480469 71.523438 309.480469 Z M 71.519531 309.480469 Z M 71.503906 309.472656 L 71.5 309.472656 C 71.5 309.472656 71.503906 309.472656 71.503906 309.472656 Z M 71.488281 309.464844 L 71.492188 309.46875 Z M 71.484375 309.464844 C 71.484375 309.464844 71.484375 309.464844 71.488281 309.464844 C 71.484375 309.464844 71.484375 309.464844 71.484375 309.464844 Z M 71.476562 309.460938 C 71.476562 309.460938 71.476562 309.460938 71.480469 309.460938 C 71.476562 309.460938 71.476562 309.460938 71.476562 309.460938 Z M 71.46875 309.457031 C 71.472656 309.457031 71.472656 309.460938 71.476562 309.460938 C 71.472656 309.460938 71.472656 309.457031 71.46875 309.457031 Z M 71.464844 309.457031 C 71.464844 309.457031 71.464844 309.457031 71.46875 309.457031 C 71.464844 309.457031 71.464844 309.457031 71.464844 309.457031 Z M 71.4375 309.445312 C 71.441406 309.445312 71.441406 309.445312 71.445312 309.449219 C 71.441406 309.445312 71.441406 309.445312 71.4375 309.445312 Z M 71.433594 309.441406 Z M 71.425781 309.4375 C 71.425781 309.4375 71.425781 309.4375 71.425781 309.441406 C 71.425781 309.4375 71.425781 309.4375 71.425781 309.4375 Z M 71.421875 309.4375 C 71.421875 309.4375 71.421875 309.4375 71.425781 309.4375 C 71.421875 309.4375 71.421875 309.4375 71.421875 309.4375 Z M 71.414062 309.433594 C 71.414062 309.433594 71.414062 309.433594 71.417969 309.433594 C 71.414062 309.433594 71.414062 309.433594 71.414062 309.433594 Z M 71.410156 309.433594 Z M 71.40625 309.429688 Z M 71.394531 309.425781 C 71.394531 309.425781 71.398438 309.425781 71.398438 309.429688 C 71.398438 309.425781 71.394531 309.425781 71.394531 309.425781 Z M 71.390625 309.421875 Z M 71.382812 309.421875 C 71.386719 309.421875 71.386719 309.421875 71.386719 309.421875 C 71.386719 309.421875 71.386719 309.421875 71.382812 309.421875 Z M 71.378906 309.417969 C 71.378906 309.417969 71.382812 309.417969 71.382812 309.417969 C 71.382812 309.417969 71.378906 309.417969 71.378906 309.417969 Z M 71.375 309.417969 C 71.375 309.417969 71.375 309.417969 71.378906 309.417969 C 71.375 309.417969 71.375 309.417969 71.375 309.417969 Z M 71.367188 309.414062 L 71.371094 309.414062 C 71.371094 309.414062 71.371094 309.414062 71.367188 309.414062 Z M 71.351562 309.40625 Z M 71.34375 309.402344 Z M 71.3125 309.390625 C 71.3125 309.390625 71.316406 309.390625 71.316406 309.390625 C 71.316406 309.390625 71.3125 309.390625 71.3125 309.390625 Z M 72.296875 277.183594 L 69.085938 287.535156 C 67.921875 291.277344 68.898438 295.175781 71.3125 297.917969 C 72.585938 299.359375 74.253906 300.484375 76.226562 301.09375 L 80.046875 302.28125 L 80.796875 304.6875 L 75.207031 286.769531 Z M 299.5 239.527344 L 301.253906 245.152344 L 296.292969 261.140625 L 352.042969 81.511719 C 353.8125 75.796875 350.613281 69.722656 344.902344 67.949219 L 299.5 53.867188 Z M 180.710938 17.015625 L 165.824219 12.398438 C 160.109375 10.625 154.03125 13.824219 152.261719 19.535156 L 152.109375 20.019531 L 171.074219 20.019531 Z M 180.710938 17.015625 " fill-opacity="1" fill-rule="evenodd"/><g clip-path="url(#7b97bfcbe4)"><g clip-path="url(#85056d8faf)"><g clip-path="url(#5a2ebdbdb1)"><g clip-path="url(#fa004a5bdd)"><path fill="#000000" d="M 195.308594 199.929688 L 177.140625 147.253906 L 125.191406 165.175781 L 143.359375 217.847656 Z M 182.636719 141.628906 L 203.105469 200.96875 C 203.257812 201.414062 203.320312 201.867188 203.292969 202.335938 C 203.265625 202.800781 203.148438 203.246094 202.945312 203.664062 C 202.742188 204.085938 202.464844 204.449219 202.117188 204.761719 C 201.769531 205.070312 201.371094 205.300781 200.933594 205.453125 L 142.339844 225.664062 C 141.898438 225.816406 141.445312 225.878906 140.980469 225.847656 C 140.515625 225.820312 140.074219 225.703125 139.652344 225.5 C 139.234375 225.292969 138.871094 225.015625 138.558594 224.664062 C 138.25 224.3125 138.019531 223.917969 137.867188 223.476562 L 117.394531 164.132812 C 117.242188 163.691406 117.179688 163.234375 117.207031 162.769531 C 117.234375 162.300781 117.351562 161.859375 117.554688 161.4375 C 117.757812 161.019531 118.035156 160.652344 118.382812 160.34375 C 118.734375 160.035156 119.128906 159.800781 119.566406 159.648438 L 178.160156 139.4375 C 178.601562 139.285156 179.054688 139.226562 179.519531 139.253906 C 179.984375 139.28125 180.425781 139.398438 180.847656 139.605469 C 181.265625 139.8125 181.628906 140.089844 181.941406 140.4375 C 182.25 140.789062 182.480469 141.1875 182.632812 141.628906 Z M 213.925781 217.796875 L 139.722656 243.394531 C 139 243.644531 138.257812 243.820312 137.5 243.921875 C 136.742188 244.023438 135.984375 244.050781 135.21875 244.003906 C 134.457031 243.953125 133.707031 243.832031 132.964844 243.636719 C 132.226562 243.441406 131.511719 243.175781 130.824219 242.839844 C 130.136719 242.5 129.488281 242.101562 128.878906 241.636719 C 128.269531 241.171875 127.710938 240.652344 127.203125 240.078125 C 126.695312 239.503906 126.246094 238.882812 125.859375 238.222656 C 125.472656 237.558594 125.152344 236.867188 124.902344 236.140625 L 99.378906 162.152344 C 99.132812 161.429688 98.953125 160.683594 98.851562 159.925781 C 98.746094 159.164062 98.71875 158.402344 98.761719 157.636719 C 98.808594 156.871094 98.929688 156.117188 99.121094 155.375 C 99.316406 154.632812 99.578125 153.917969 99.914062 153.230469 C 100.246094 152.539062 100.644531 151.890625 101.105469 151.28125 C 101.570312 150.671875 102.085938 150.109375 102.65625 149.601562 C 103.226562 149.09375 103.84375 148.648438 104.503906 148.261719 C 105.164062 147.875 105.851562 147.554688 106.574219 147.304688 L 180.777344 121.707031 C 181.5 121.460938 182.242188 121.285156 182.996094 121.183594 C 183.753906 121.082031 184.515625 121.054688 185.277344 121.101562 C 186.042969 121.148438 186.792969 121.269531 187.535156 121.464844 C 188.273438 121.664062 188.988281 121.929688 189.675781 122.265625 C 190.363281 122.601562 191.011719 123.003906 191.621094 123.46875 C 192.230469 123.933594 192.789062 124.453125 193.296875 125.027344 C 193.804688 125.601562 194.253906 126.21875 194.640625 126.882812 C 195.027344 127.542969 195.347656 128.238281 195.597656 128.964844 L 221.121094 202.949219 C 221.367188 203.675781 221.546875 204.417969 221.648438 205.179688 C 221.753906 205.9375 221.78125 206.703125 221.734375 207.46875 C 221.691406 208.234375 221.570312 208.984375 221.378906 209.726562 C 221.183594 210.46875 220.921875 211.183594 220.585938 211.875 C 220.253906 212.5625 219.855469 213.214844 219.394531 213.824219 C 218.929688 214.433594 218.414062 214.992188 217.84375 215.5 C 217.273438 216.007812 216.65625 216.457031 215.996094 216.84375 C 215.335938 217.230469 214.648438 217.546875 213.925781 217.796875 Z M 205.011719 134.703125 L 207.3125 141.375 L 220.109375 136.960938 C 220.5625 136.816406 220.964844 136.589844 221.324219 136.28125 C 221.683594 135.972656 221.96875 135.605469 222.179688 135.183594 C 222.390625 134.757812 222.511719 134.308594 222.542969 133.835938 C 222.570312 133.363281 222.511719 132.902344 222.355469 132.453125 C 222.199219 132.003906 221.964844 131.605469 221.648438 131.25 C 221.332031 130.894531 220.960938 130.617188 220.535156 130.414062 C 220.105469 130.210938 219.65625 130.097656 219.183594 130.074219 C 218.710938 130.054688 218.253906 130.125 217.808594 130.289062 Z M 223.703125 147.371094 L 210.90625 151.789062 L 213.207031 158.457031 L 226.003906 154.042969 C 226.453125 153.898438 226.859375 153.671875 227.21875 153.363281 C 227.574219 153.054688 227.859375 152.691406 228.070312 152.265625 C 228.285156 151.84375 228.402344 151.394531 228.433594 150.921875 C 228.464844 150.445312 228.402344 149.984375 228.25 149.535156 C 228.09375 149.089844 227.859375 148.6875 227.542969 148.332031 C 227.226562 147.980469 226.855469 147.699219 226.425781 147.496094 C 226 147.292969 225.550781 147.179688 225.078125 147.160156 C 224.605469 147.136719 224.144531 147.207031 223.703125 147.371094 Z M 229.597656 164.457031 L 216.796875 168.871094 L 219.097656 175.542969 L 231.898438 171.125 C 232.347656 170.984375 232.75 170.757812 233.109375 170.449219 C 233.46875 170.140625 233.753906 169.773438 233.964844 169.347656 C 234.175781 168.925781 234.296875 168.476562 234.328125 168.003906 C 234.359375 167.53125 234.296875 167.070312 234.140625 166.621094 C 233.988281 166.171875 233.75 165.769531 233.433594 165.417969 C 233.121094 165.0625 232.746094 164.785156 232.320312 164.582031 C 231.890625 164.375 231.441406 164.265625 230.96875 164.242188 C 230.496094 164.222656 230.039062 164.292969 229.597656 164.457031 Z M 235.488281 181.539062 L 222.691406 185.953125 L 224.992188 192.625 L 237.789062 188.210938 C 238.242188 188.066406 238.644531 187.839844 239.003906 187.53125 C 239.363281 187.222656 239.648438 186.855469 239.859375 186.433594 C 240.070312 186.007812 240.191406 185.558594 240.222656 185.085938 C 240.25 184.613281 240.1875 184.152344 240.035156 183.703125 C 239.878906 183.253906 239.644531 182.855469 239.328125 182.5 C 239.011719 182.144531 238.640625 181.867188 238.214844 181.664062 C 237.785156 181.460938 237.335938 181.347656 236.863281 181.324219 C 236.390625 181.304688 235.933594 181.375 235.488281 181.539062 Z M 95.507812 172.476562 L 82.707031 176.890625 C 82.269531 177.042969 81.875 177.273438 81.523438 177.585938 C 81.175781 177.894531 80.898438 178.257812 80.695312 178.679688 C 80.492188 179.101562 80.378906 179.542969 80.347656 180.011719 C 80.320312 180.476562 80.382812 180.933594 80.535156 181.375 C 80.691406 181.816406 80.921875 182.214844 81.230469 182.5625 C 81.539062 182.914062 81.90625 183.191406 82.324219 183.398438 C 82.742188 183.601562 83.1875 183.71875 83.652344 183.75 C 84.117188 183.777344 84.570312 183.714844 85.011719 183.5625 L 97.808594 179.148438 Z M 101.398438 189.5625 L 88.601562 193.976562 C 88.152344 194.121094 87.746094 194.347656 87.390625 194.65625 C 87.03125 194.964844 86.746094 195.332031 86.535156 195.753906 C 86.324219 196.179688 86.203125 196.625 86.171875 197.101562 C 86.140625 197.574219 86.203125 198.035156 86.359375 198.484375 C 86.511719 198.933594 86.75 199.332031 87.0625 199.6875 C 87.378906 200.039062 87.75 200.320312 88.179688 200.523438 C 88.605469 200.726562 89.058594 200.839844 89.53125 200.859375 C 90.003906 200.882812 90.460938 200.8125 90.902344 200.648438 L 103.703125 196.234375 Z M 107.292969 206.644531 L 94.496094 211.058594 C 94.046875 211.203125 93.640625 211.429688 93.28125 211.738281 C 92.921875 212.046875 92.640625 212.414062 92.425781 212.835938 C 92.214844 213.261719 92.09375 213.710938 92.066406 214.183594 C 92.035156 214.65625 92.097656 215.117188 92.25 215.566406 C 92.40625 216.015625 92.640625 216.417969 92.957031 216.769531 C 93.273438 217.125 93.644531 217.402344 94.074219 217.605469 C 94.5 217.808594 94.949219 217.921875 95.421875 217.945312 C 95.894531 217.964844 96.351562 217.894531 96.796875 217.730469 L 109.59375 213.316406 Z M 113.1875 223.730469 L 100.386719 228.144531 C 99.949219 228.296875 99.554688 228.527344 99.207031 228.835938 C 98.859375 229.148438 98.582031 229.511719 98.378906 229.933594 C 98.175781 230.351562 98.0625 230.796875 98.035156 231.261719 C 98.007812 231.726562 98.070312 232.183594 98.222656 232.625 C 98.375 233.066406 98.605469 233.460938 98.914062 233.8125 C 99.222656 234.164062 99.585938 234.441406 100.007812 234.648438 C 100.425781 234.851562 100.867188 234.96875 101.332031 235 C 101.796875 235.027344 102.25 234.96875 102.691406 234.816406 L 115.488281 230.402344 Z M 150.28125 247.21875 L 154.710938 260.066406 C 154.855469 260.519531 155.082031 260.925781 155.390625 261.285156 C 155.699219 261.644531 156.066406 261.933594 156.488281 262.144531 C 156.910156 262.359375 157.359375 262.480469 157.832031 262.511719 C 158.304688 262.542969 158.761719 262.484375 159.210938 262.328125 C 159.65625 262.175781 160.054688 261.941406 160.40625 261.625 C 160.761719 261.308594 161.035156 260.9375 161.238281 260.507812 C 161.441406 260.078125 161.550781 259.628906 161.570312 259.152344 C 161.59375 258.679688 161.519531 258.21875 161.355469 257.773438 L 156.921875 244.925781 Z M 167.292969 241.347656 L 171.726562 254.195312 C 171.871094 254.648438 172.097656 255.054688 172.40625 255.414062 C 172.714844 255.777344 173.082031 256.0625 173.503906 256.277344 C 173.925781 256.488281 174.375 256.609375 174.847656 256.644531 C 175.320312 256.675781 175.777344 256.613281 176.226562 256.460938 C 176.671875 256.304688 177.070312 256.070312 177.421875 255.753906 C 177.773438 255.4375 178.050781 255.066406 178.253906 254.636719 C 178.457031 254.210938 178.566406 253.757812 178.585938 253.285156 C 178.609375 252.808594 178.535156 252.351562 178.371094 251.90625 L 173.9375 239.054688 Z M 184.308594 235.476562 L 188.742188 248.328125 C 188.886719 248.78125 189.113281 249.1875 189.421875 249.546875 C 189.730469 249.90625 190.097656 250.195312 190.519531 250.40625 C 190.941406 250.621094 191.390625 250.742188 191.863281 250.773438 C 192.332031 250.804688 192.792969 250.746094 193.238281 250.589844 C 193.6875 250.4375 194.085938 250.199219 194.4375 249.886719 C 194.789062 249.570312 195.066406 249.195312 195.269531 248.769531 C 195.472656 248.339844 195.582031 247.886719 195.601562 247.414062 C 195.621094 246.941406 195.550781 246.480469 195.386719 246.035156 L 190.953125 233.1875 Z M 201.324219 229.609375 L 205.757812 242.457031 C 205.902344 242.910156 206.128906 243.316406 206.4375 243.675781 C 206.746094 244.039062 207.113281 244.324219 207.535156 244.535156 C 207.957031 244.75 208.40625 244.871094 208.878906 244.902344 C 209.347656 244.9375 209.808594 244.875 210.253906 244.71875 C 210.703125 244.566406 211.101562 244.332031 211.453125 244.015625 C 211.804688 243.699219 212.082031 243.328125 212.285156 242.898438 C 212.488281 242.46875 212.597656 242.019531 212.617188 241.542969 C 212.636719 241.070312 212.566406 240.609375 212.402344 240.164062 L 207.96875 227.316406 Z M 112.53125 137.785156 L 119.175781 135.496094 L 114.742188 122.644531 C 114.597656 122.195312 114.371094 121.789062 114.0625 121.425781 C 113.753906 121.066406 113.386719 120.78125 112.964844 120.566406 C 112.542969 120.355469 112.09375 120.230469 111.621094 120.199219 C 111.152344 120.167969 110.691406 120.230469 110.246094 120.382812 C 109.796875 120.539062 109.398438 120.773438 109.046875 121.089844 C 108.695312 121.40625 108.417969 121.777344 108.214844 122.207031 C 108.011719 122.632812 107.902344 123.085938 107.882812 123.558594 C 107.863281 124.03125 107.933594 124.492188 108.097656 124.9375 Z M 125.113281 119.066406 L 129.546875 131.917969 L 136.191406 129.625 L 131.757812 116.777344 C 131.613281 116.324219 131.386719 115.917969 131.078125 115.558594 C 130.769531 115.195312 130.402344 114.910156 129.980469 114.695312 C 129.558594 114.484375 129.109375 114.363281 128.636719 114.332031 C 128.164062 114.296875 127.707031 114.359375 127.257812 114.511719 C 126.8125 114.667969 126.414062 114.902344 126.0625 115.21875 C 125.710938 115.535156 125.433594 115.90625 125.230469 116.335938 C 125.027344 116.765625 124.917969 117.214844 124.898438 117.6875 C 124.875 118.164062 124.949219 118.621094 125.113281 119.066406 Z M 142.128906 113.199219 L 146.5625 126.046875 L 153.203125 123.753906 L 148.773438 110.90625 C 148.628906 110.453125 148.402344 110.046875 148.09375 109.6875 C 147.785156 109.328125 147.417969 109.039062 146.996094 108.828125 C 146.574219 108.613281 146.125 108.492188 145.652344 108.460938 C 145.179688 108.429688 144.722656 108.488281 144.273438 108.644531 C 143.828125 108.796875 143.429688 109.035156 143.078125 109.347656 C 142.722656 109.664062 142.449219 110.039062 142.246094 110.464844 C 142.042969 110.894531 141.933594 111.347656 141.914062 111.820312 C 141.890625 112.292969 141.964844 112.753906 142.128906 113.199219 Z M 159.144531 107.328125 L 163.574219 120.179688 L 170.21875 117.886719 L 165.789062 105.035156 C 165.644531 104.585938 165.417969 104.179688 165.109375 103.816406 C 164.800781 103.457031 164.433594 103.171875 164.011719 102.957031 C 163.585938 102.746094 163.140625 102.621094 162.667969 102.589844 C 162.195312 102.558594 161.738281 102.621094 161.289062 102.773438 C 160.84375 102.929688 160.445312 103.164062 160.089844 103.480469 C 159.738281 103.796875 159.464844 104.167969 159.261719 104.597656 C 159.058594 105.023438 158.949219 105.476562 158.925781 105.949219 C 158.90625 106.425781 158.980469 106.882812 159.144531 107.328125 Z M 159.144531 107.328125 " fill-opacity="1" fill-rule="evenodd"/></g></g></g></g><g clip-path="url(#613693fdfe)"><g clip-path="url(#0d5797d3b8)"><g clip-path="url(#517bf991c3)"><path fill="#000000" d="M 102.449219 152.539062 L 186.394531 123.582031 L 216.824219 211.792969 L 132.878906 240.75 Z M 102.449219 152.539062 " fill-opacity="1" fill-rule="nonzero"/></g></g></g><g clip-path="url(#6f1576139b)"><g clip-path="url(#bdb9bbb55f)"><g clip-path="url(#03d5b85597)"><path fill="#ffffff" d="M 119.980469 189.1875 L 124.542969 202.410156 L 122.921875 202.96875 C 122.484375 203.117188 122.03125 203.175781 121.566406 203.148438 C 121.105469 203.121094 120.664062 203.003906 120.246094 202.800781 C 119.828125 202.597656 119.464844 202.320312 119.15625 201.972656 C 118.847656 201.625 118.617188 201.234375 118.460938 200.796875 L 116.191406 194.199219 C 116.039062 193.761719 115.980469 193.308594 116.007812 192.84375 C 116.035156 192.382812 116.148438 191.941406 116.355469 191.523438 C 116.558594 191.105469 116.832031 190.742188 117.179688 190.433594 C 117.527344 190.128906 117.921875 189.898438 118.359375 189.746094 Z M 119.980469 189.1875 " fill-opacity="1" fill-rule="nonzero"/></g></g></g><g clip-path="url(#a63b6f3578)"><g clip-path="url(#f3737b701d)"><g clip-path="url(#fbf911605b)"><path fill="#ffffff" d="M 148.101562 194.28125 L 143.539062 181.058594 L 172.878906 170.9375 L 177.441406 184.160156 Z M 148.101562 194.28125 " fill-opacity="1" fill-rule="nonzero"/></g></g></g><g clip-path="url(#436289dd0a)"><g clip-path="url(#ce39e29171)"><g clip-path="url(#ea45dbfbdb)"><path fill="#ffffff" d="M 126.210938 176.359375 L 137.351562 208.65625 C 137.347656 208.664062 137.335938 208.667969 137.328125 208.671875 L 132.367188 210.382812 C 131.527344 210.675781 130.710938 210.625 129.917969 210.234375 C 129.113281 209.839844 128.566406 209.21875 128.277344 208.371094 L 119.242188 182.175781 C 119.101562 181.769531 119.042969 181.359375 119.066406 180.933594 C 119.09375 180.507812 119.199219 180.101562 119.382812 179.71875 C 119.566406 179.335938 119.820312 179 120.136719 178.714844 C 120.457031 178.433594 120.816406 178.21875 121.21875 178.078125 L 126.191406 176.363281 Z M 126.210938 176.359375 " fill-opacity="1" fill-rule="nonzero"/></g></g></g><g clip-path="url(#7b251b9a07)"><g clip-path="url(#588ad1c404)"><g clip-path="url(#11d8223285)"><path fill="#ffffff" d="M 202.519531 164.421875 L 204.800781 171.011719 C 204.949219 171.453125 205.007812 171.90625 204.980469 172.367188 C 204.949219 172.832031 204.832031 173.273438 204.628906 173.691406 C 204.425781 174.109375 204.152344 174.46875 203.804688 174.78125 C 203.457031 175.089844 203.066406 175.320312 202.625 175.472656 L 201.007812 176.03125 L 196.449219 162.808594 L 198.066406 162.25 C 198.503906 162.101562 198.957031 162.039062 199.421875 162.066406 C 199.882812 162.09375 200.324219 162.207031 200.742188 162.410156 C 201.160156 162.617188 201.523438 162.890625 201.832031 163.238281 C 202.136719 163.585938 202.367188 163.980469 202.519531 164.421875 Z M 202.519531 164.421875 " fill-opacity="1" fill-rule="nonzero"/></g></g></g><g clip-path="url(#3d2c22faf3)"><g clip-path="url(#db0d7f074f)"><g clip-path="url(#f199e2d61b)"><path fill="#ffffff" d="M 192.707031 156.832031 L 201.742188 183.03125 C 201.882812 183.4375 201.941406 183.855469 201.914062 184.28125 C 201.890625 184.710938 201.78125 185.117188 201.59375 185.5 C 201.40625 185.886719 201.152344 186.222656 200.832031 186.507812 C 200.511719 186.789062 200.148438 187.003906 199.742188 187.140625 L 194.800781 188.84375 C 194.785156 188.851562 194.769531 188.855469 194.753906 188.855469 L 183.613281 156.558594 L 188.605469 154.835938 C 189.007812 154.695312 189.425781 154.640625 189.851562 154.667969 C 190.277344 154.691406 190.683594 154.800781 191.066406 154.984375 C 191.453125 155.171875 191.785156 155.425781 192.070312 155.746094 C 192.355469 156.066406 192.566406 156.429688 192.707031 156.832031 Z M 192.707031 156.832031 " fill-opacity="1" fill-rule="nonzero"/></g></g></g><g clip-path="url(#4b726b7fc3)"><g clip-path="url(#8200bd96ff)"><g clip-path="url(#8e3fa92543)"><path fill="#ffffff" d="M 137.164062 167.46875 L 151.457031 208.902344 C 151.753906 209.742188 151.707031 210.566406 151.328125 211.371094 L 151.308594 211.40625 C 150.929688 212.199219 150.324219 212.738281 149.488281 213.019531 L 144.546875 214.730469 C 143.699219 215.019531 142.875 214.96875 142.070312 214.570312 C 141.269531 214.175781 140.722656 213.554688 140.429688 212.707031 L 126.136719 171.273438 C 125.996094 170.871094 125.941406 170.453125 125.96875 170.027344 C 125.992188 169.601562 126.101562 169.195312 126.285156 168.808594 C 126.472656 168.425781 126.726562 168.089844 127.046875 167.808594 C 127.367188 167.523438 127.730469 167.3125 128.132812 167.171875 L 133.085938 165.464844 C 133.488281 165.324219 133.902344 165.269531 134.328125 165.296875 C 134.753906 165.320312 135.160156 165.429688 135.542969 165.617188 C 135.925781 165.804688 136.257812 166.058594 136.539062 166.382812 C 136.820312 166.703125 137.027344 167.066406 137.164062 167.46875 Z M 137.164062 167.46875 " fill-opacity="1" fill-rule="nonzero"/></g></g></g><g clip-path="url(#fab462c9a1)"><g clip-path="url(#45b07095ae)"><g clip-path="url(#d82153cf28)"><path fill="#ffffff" d="M 178.902344 150.65625 C 179.703125 151.050781 180.246094 151.664062 180.535156 152.507812 L 194.828125 193.941406 C 195.121094 194.796875 195.070312 195.632812 194.679688 196.445312 C 194.296875 197.238281 193.6875 197.777344 192.855469 198.066406 L 187.886719 199.773438 C 187.042969 200.070312 186.222656 200.015625 185.425781 199.609375 C 184.625 199.210938 184.082031 198.589844 183.796875 197.746094 L 169.503906 156.3125 C 169.367188 155.910156 169.308594 155.496094 169.332031 155.070312 C 169.355469 154.644531 169.460938 154.242188 169.648438 153.855469 C 169.832031 153.472656 170.082031 153.140625 170.402344 152.855469 C 170.71875 152.570312 171.078125 152.359375 171.480469 152.21875 L 176.453125 150.503906 C 177.292969 150.210938 178.109375 150.261719 178.902344 150.65625 Z M 178.902344 150.65625 " fill-opacity="1" fill-rule="nonzero"/></g></g></g></svg>